<?xml version="1.0" standalone="no"?>
<!DOCTYPE svg PUBLIC "-//W3C//DTD SVG 20010904//EN"
 "http://www.w3.org/TR/2001/REC-SVG-20010904/DTD/svg10.dtd">
<svg version="1.0" xmlns="http://www.w3.org/2000/svg"
 width="200.000000pt" height="54.000000pt" viewBox="0 0 200.000000 54.000000"
 preserveAspectRatio="xMidYMid meet">
<metadata>
Created by potrace 1.16, written by Peter Selinger 2001-2019
</metadata>
<g transform="translate(0.000000,54.000000) scale(0.100000,-0.100000)"
fill="#000000" stroke="none">
<path d="M440 340 c0 -11 -4 -20 -10 -20 -5 0 -10 -9 -10 -20 0 -11 -4 -20
-10 -20 -5 0 -10 -9 -10 -20 0 -11 -4 -20 -10 -20 -5 0 -10 -9 -10 -20 0 -11
-4 -20 -10 -20 -5 0 -10 -4 -10 -10 0 -6 29 -10 66 -10 64 0 94 13 94 40 0 26
30 40 84 40 49 0 56 -2 56 -20 0 -11 -4 -20 -10 -20 -5 0 -10 -9 -10 -20 0
-18 7 -20 70 -20 63 0 70 2 70 20 0 11 5 20 10 20 6 0 10 9 10 20 0 11 5 20
10 20 6 0 10 9 10 20 0 11 5 20 10 20 6 0 10 14 10 30 0 30 0 30 -56 30 -57 0
-84 -14 -84 -44 0 -13 -13 -16 -70 -16 -63 0 -70 2 -70 20 0 11 5 20 10 20 6
0 10 5 10 10 0 6 -30 10 -70 10 -63 0 -70 -2 -70 -20z"/>
<path d="M1000 350 c0 -5 -13 -10 -30 -10 -16 0 -30 -4 -30 -10 0 -5 -9 -10
-20 -10 -11 0 -20 -4 -20 -10 0 -5 -9 -10 -20 -10 -13 0 -20 -7 -20 -19 0 -11
-5 -21 -12 -23 -16 -6 35 -58 57 -58 8 0 15 -4 15 -10 0 -6 47 -10 120 -10 73
0 120 4 120 10 0 6 14 10 30 10 17 0 30 5 30 10 0 6 9 10 20 10 11 0 20 5 20
10 0 6 -30 10 -70 10 -40 0 -70 -4 -70 -10 0 -16 -109 -12 -126 5 -13 13 -11
19 20 50 30 30 42 35 81 35 25 0 45 -4 45 -10 0 -6 30 -10 70 -10 63 0 70 2
70 20 0 16 -7 20 -30 20 -16 0 -30 5 -30 10 0 6 -43 10 -110 10 -67 0 -110 -4
-110 -10z"/>
<path d="M1353 345 c-7 -8 -13 -21 -13 -30 0 -8 -4 -15 -10 -15 -5 0 -10 -13
-10 -30 0 -16 -4 -30 -10 -30 -5 0 -10 -9 -10 -20 0 -11 -4 -20 -10 -20 -5 0
-10 -4 -10 -10 0 -6 62 -10 166 -10 130 0 168 3 180 14 8 8 14 17 14 20 0 3
-45 6 -100 6 -60 0 -100 4 -100 10 0 6 5 10 10 10 6 0 10 9 10 20 0 11 5 20
10 20 6 0 10 14 10 30 0 17 5 30 10 30 6 0 10 5 10 10 0 16 -133 12 -147 -5z"/>
</g>
</svg>
