<?xml version="1.0" encoding="UTF-8"?>
<svg width="18px" height="14px" viewBox="0 0 18 14" version="1.1" xmlns="http://www.w3.org/2000/svg" xmlns:xlink="http://www.w3.org/1999/xlink">
    <title>menu-hamburger</title>
    <g id="Standard-Header-(Latest)" stroke="none" stroke-width="1" fill="none" fill-rule="evenodd">
        <g id="menu-hamburger" fill="#000000" fill-rule="nonzero">
            <path d="M17.5,2 L0.5,2 C0.223857625,2 0,1.77614237 0,1.5 L0,0.5 C0,0.223857625 0.223857625,0 0.5,0 L17.5,0 C17.7761424,0 18,0.223857625 18,0.5 L18,1.5 C18,1.77614237 17.7761424,2 17.5,2 Z M18,7.5 L18,6.5 C18,6.22385763 17.7761424,6 17.5,6 L0.5,6 C0.223857625,6 0,6.22385763 0,6.5 L0,7.5 C0,7.77614237 0.223857625,8 0.5,8 L17.5,8 C17.7761424,8 18,7.77614237 18,7.5 Z M18,13.5 L18,12.5 C18,12.2238576 17.7761424,12 17.5,12 L0.5,12 C0.223857625,12 0,12.2238576 0,12.5 L0,13.5 C0,13.7761424 0.223857625,14 0.5,14 L17.5,14 C17.7761424,14 18,13.7761424 18,13.5 Z" id="Shape"></path>
        </g>
    </g>
</svg>